<svg width="13" height="12" viewBox="0 0 13 12" fill="none" xmlns="http://www.w3.org/2000/svg">
<path fill-rule="evenodd" clip-rule="evenodd" d="M1.49667 2.73149C2.3228 2.73149 2.99253 2.12072 2.99253 1.36648C2.99253 0.611565 2.3228 0 1.49667 0C0.669733 0 0 0.611565 0 1.36648C0 2.12072 0.669733 2.73149 1.49667 2.73149ZM0.342857 11.5124H3.02686V3.77143H0.342857V11.5124ZM8.21815 5.45119C7.21389 5.45119 6.79389 6.31929 6.79389 7.20701V11.4135H4.11429V3.67256H6.79389V4.7147C7.49895 3.80429 8.11162 3.42857 9.22242 3.42857C10.3342 3.42857 12.1414 3.95565 12.1414 7.01294V11.4135H9.46935V7.18578C9.46935 6.31929 9.22242 5.45119 8.21815 5.45119Z" fill="white"/>
</svg>
