<svg width="12" height="10" viewBox="0 0 12 10" fill="none" xmlns="http://www.w3.org/2000/svg">
<path fill-rule="evenodd" clip-rule="evenodd" d="M11.3253 0.210217C10.9866 0.42717 10.2089 0.74243 9.82542 0.74243V0.743078C9.3875 0.2856 8.77096 0 8.08721 0C6.7592 0 5.68234 1.07686 5.68234 2.40435C5.68234 2.58879 5.70371 2.7687 5.74322 2.94123H5.74283C3.94141 2.89395 1.97122 1.99104 0.785173 0.445691C0.0559543 1.7079 0.686994 3.11168 1.51452 3.62317C1.23125 3.64454 0.70979 3.59053 0.464343 3.35104C0.447893 4.1888 0.850712 5.29882 2.31951 5.70151C2.03663 5.8537 1.53589 5.81005 1.31816 5.77767C1.39458 6.48487 2.38492 7.40941 3.46787 7.40941C3.08189 7.85588 1.62967 8.66566 0 8.40804C1.10678 9.08143 2.39671 9.47143 3.76202 9.47143C7.6419 9.47143 10.655 6.32698 10.4929 2.44787C10.4922 2.4436 10.4922 2.43932 10.4918 2.43466C10.4922 2.42469 10.4929 2.41471 10.4929 2.40435C10.4929 2.3923 10.4918 2.38091 10.4914 2.36925C10.8446 2.12769 11.3186 1.70039 11.6571 1.138C11.4608 1.24615 10.8717 1.46271 10.3236 1.51646C10.6754 1.32658 11.1966 0.704739 11.3253 0.210217Z" fill="white"/>
</svg>
