<svg width="881" height="310" viewBox="0 0 881 310" fill="none" xmlns="http://www.w3.org/2000/svg">
<path d="M1 266.376L108.359 260.967C110.03 260.883 111.704 261.009 113.344 261.342L209.866 280.936C216.635 282.311 223.634 280.094 228.379 275.075L272.462 228.439C274.583 226.194 277.196 224.471 280.095 223.406L318.911 209.137C326.08 206.501 334.123 208.179 339.641 213.46L423.243 293.483C432.239 302.093 446.832 300.478 453.727 290.109L542.546 156.538C547.238 149.482 555.868 146.149 564.085 148.219L646.553 168.991C654.764 171.059 663.387 167.733 668.082 160.687L764.543 15.9137C768.054 10.6431 773.855 7.34733 780.18 7.02868L880 2" stroke="#FFBA69" stroke-width="4"/>
</svg>
