<svg width="922" height="300" viewBox="0 0 922 300" fill="none" xmlns="http://www.w3.org/2000/svg">
<path d="M15 186C15 180.477 19.4772 176 25 176H28C33.5228 176 38 180.477 38 186V300H15V186Z" fill="#C2EED8"/>
<path d="M38 255C38 249.477 42.4772 245 48 245H51C56.5228 245 61 249.477 61 255V300H38V255Z" fill="#FF9781"/>
<path d="M117 156C117 150.477 121.477 146 127 146H130C135.523 146 140 150.477 140 156V300H117V156Z" fill="#C2EED8"/>
<path d="M140 238C140 232.477 144.477 228 150 228H153C158.523 228 163 232.477 163 238V300H140V238Z" fill="#FF9781"/>
<path d="M223 203C223 197.477 227.477 193 233 193H236C241.523 193 246 197.477 246 203V300H223V203Z" fill="#C2EED8"/>
<path d="M246 190C246 184.477 250.477 180 256 180H259C264.523 180 269 184.477 269 190V300H246V190Z" fill="#FF9781"/>
<path d="M326 190C326 184.477 330.477 180 336 180H339C344.523 180 349 184.477 349 190V300H326V190Z" fill="#C2EED8"/>
<path d="M349 216C349 210.477 353.477 206 359 206H362C367.523 206 372 210.477 372 216V300H349V216Z" fill="#FF9781"/>
<path d="M430 190C430 184.477 434.477 180 440 180H443C448.523 180 453 184.477 453 190V300H430V190Z" fill="#C2EED8"/>
<path d="M453 120C453 114.477 457.477 110 463 110H466C471.523 110 476 114.477 476 120V300H453V120Z" fill="#FF9781"/>
<path d="M535 156C535 150.477 539.477 146 545 146H548C553.523 146 558 150.477 558 156V300H535V156Z" fill="#C2EED8"/>
<path d="M558 242C558 236.477 562.477 232 568 232H571C576.523 232 581 236.477 581 242V300H558V242Z" fill="#FF9781"/>
<path d="M638 156C638 150.477 642.477 146 648 146H651C656.523 146 661 150.477 661 156V300H638V156Z" fill="#C2EED8"/>
<path d="M661 242C661 236.477 665.477 232 671 232H674C679.523 232 684 236.477 684 242V300H661V242Z" fill="#FF9781"/>
<path d="M736 19C736 13.4772 740.477 9 746 9H749C754.523 9 759 13.4772 759 19V300H736V19Z" fill="#C2EED8"/>
<path d="M759 242C759 236.477 763.477 232 769 232H772C777.523 232 782 236.477 782 242V300H759V242Z" fill="#FF9781"/>
<path d="M840 55C840 49.4772 844.477 45 850 45H853C858.523 45 863 49.4772 863 55V300H840V55Z" fill="#C2EED8"/>
<path d="M863 275C863 269.477 867.477 265 873 265H876C881.523 265 886 269.477 886 275V300H863V275Z" fill="#FF9781"/>
<path d="M1 223.458L113.981 218.902C115.324 218.848 116.668 218.93 117.994 219.145L221.903 236.027C227.676 236.965 233.57 235.329 238.034 231.55L285.275 191.551C287.402 189.75 289.881 188.414 292.554 187.628L336.256 174.77C342.38 172.969 348.996 174.198 354.063 178.08L445.739 248.31C454.264 254.839 466.423 253.473 473.285 245.214L568.369 130.773C573.069 125.116 580.495 122.495 587.705 123.949L679.308 142.415C686.511 143.867 693.93 141.253 698.631 135.606L800.314 13.4662C803.934 9.11811 809.226 6.50658 814.879 6.27866L921 2" stroke="black" stroke-width="4"/>
</svg>
